<svg width="149" height="114" viewBox="0 0 149 114" fill="none" xmlns="http://www.w3.org/2000/svg">
<g id="logo-white">
<path id="Vector" d="M7.47852 3H143.479V105H7.47852V3Z" stroke="white" stroke-width="6"/>
<path id="Vector_2" d="M22.633 37.25C20.0663 37.25 17.7496 36.75 15.683 35.75C13.6163 34.75 11.833 33.4 10.333 31.7C8.83297 29.9667 7.6663 28.0333 6.83297 25.9C6.03297 23.7333 5.63297 21.5167 5.63297 19.25C5.63297 16.8833 6.0663 14.6333 6.93297 12.5C7.79963 10.3333 8.99963 8.41667 10.533 6.75C12.0663 5.05 13.8663 3.71667 15.933 2.75C18.033 1.75 20.2996 1.25 22.733 1.25C25.2663 1.25 27.5663 1.76667 29.633 2.8C31.733 3.83333 33.5163 5.21666 34.983 6.95C36.483 8.68333 37.633 10.6167 38.433 12.75C39.2663 14.8833 39.683 17.0667 39.683 19.3C39.683 21.6667 39.2496 23.9333 38.383 26.1C37.5496 28.2333 36.3663 30.15 34.833 31.85C33.2996 33.5167 31.483 34.8333 29.383 35.8C27.3163 36.7667 25.0663 37.25 22.633 37.25V37.25ZM11.333 19.25C11.333 20.9167 11.5996 22.5333 12.133 24.1C12.6663 25.6667 13.4163 27.0667 14.383 28.3C15.383 29.5 16.583 30.45 17.983 31.15C19.383 31.85 20.9496 32.2 22.683 32.2C24.483 32.2 26.083 31.8333 27.483 31.1C28.883 30.3667 30.0496 29.3833 30.983 28.15C31.9496 26.8833 32.683 25.4833 33.183 23.95C33.683 22.3833 33.933 20.8167 33.933 19.25C33.933 17.5833 33.6663 15.9833 33.133 14.45C32.633 12.8833 31.883 11.5 30.883 10.3C29.883 9.06666 28.683 8.1 27.283 7.4C25.9163 6.7 24.383 6.35 22.683 6.35C20.883 6.35 19.283 6.71667 17.883 7.45C16.483 8.18333 15.2996 9.16667 14.333 10.4C13.3663 11.6333 12.6163 13.0167 12.083 14.55C11.583 16.0833 11.333 17.65 11.333 19.25V19.25ZM90.6306 1.5V37H84.9806V21.35H67.0806V37H61.4806V1.5H67.0806V16.35H84.9806V1.5H90.6306V1.5ZM129.389 37.25C126.823 37.25 124.506 36.75 122.439 35.75C120.373 34.75 118.589 33.4 117.089 31.7C115.589 29.9667 114.423 28.0333 113.589 25.9C112.789 23.7333 112.389 21.5167 112.389 19.25C112.389 16.8833 112.823 14.6333 113.689 12.5C114.556 10.3333 115.756 8.41667 117.289 6.75C118.823 5.05 120.623 3.71667 122.689 2.75C124.789 1.75 127.056 1.25 129.489 1.25C132.023 1.25 134.323 1.76667 136.389 2.8C138.489 3.83333 140.273 5.21666 141.739 6.95C143.239 8.68333 144.389 10.6167 145.189 12.75C146.023 14.8833 146.439 17.0667 146.439 19.3C146.439 21.6667 146.006 23.9333 145.139 26.1C144.306 28.2333 143.123 30.15 141.589 31.85C140.056 33.5167 138.239 34.8333 136.139 35.8C134.073 36.7667 131.823 37.25 129.389 37.25V37.25ZM118.089 19.25C118.089 20.9167 118.356 22.5333 118.889 24.1C119.423 25.6667 120.173 27.0667 121.139 28.3C122.139 29.5 123.339 30.45 124.739 31.15C126.139 31.85 127.706 32.2 129.439 32.2C131.239 32.2 132.839 31.8333 134.239 31.1C135.639 30.3667 136.806 29.3833 137.739 28.15C138.706 26.8833 139.439 25.4833 139.939 23.95C140.439 22.3833 140.689 20.8167 140.689 19.25C140.689 17.5833 140.423 15.9833 139.889 14.45C139.389 12.8833 138.639 11.5 137.639 10.3C136.639 9.06666 135.439 8.1 134.039 7.4C132.673 6.7 131.139 6.35 129.439 6.35C127.639 6.35 126.039 6.71667 124.639 7.45C123.239 8.18333 122.056 9.16667 121.089 10.4C120.123 11.6333 119.373 13.0167 118.839 14.55C118.339 16.0833 118.089 17.65 118.089 19.25V19.25ZM34.1935 41.45H22.3935V72H16.7435V41.45H4.89355V36.5H34.1935V41.45ZM68.8041 67.05V72H44.4541V36.5H68.3541V41.45H50.0541V51.55H65.9041V56.2H50.0541V67.05H68.8041V67.05ZM80.131 72V36.5H105.082V41.4H85.731V51.35H96.131C100.064 51.35 103.015 52.2833 104.982 54.15C106.948 55.9833 107.932 58.4167 107.932 61.45C107.932 63.4833 107.498 65.3 106.632 66.9C105.798 68.4667 104.532 69.7167 102.832 70.65C101.165 71.55 99.0477 72 96.481 72H80.131V72ZM85.731 67.1H95.731C97.2644 67.1 98.4977 66.8167 99.431 66.25C100.398 65.6833 101.082 64.9667 101.482 64.1C101.915 63.2 102.132 62.2667 102.132 61.3C102.132 60.3333 101.948 59.4333 101.582 58.6C101.215 57.7667 100.548 57.1 99.581 56.6C98.6477 56.0667 97.331 55.8 95.631 55.8H85.731V67.1ZM143.037 67.05V72H118.687V36.5H142.587V41.45H124.287V51.55H140.137V56.2H124.287V67.05H143.037V67.05ZM34.0689 71.5V107H28.4189V91.35H10.5189V107H4.91894V71.5H10.5189V86.35H28.4189V71.5H34.0689V71.5ZM53.3271 71.5H58.6271L72.4271 107H66.5271L62.7771 97.35H49.0771L45.3771 107H39.4271L53.3271 71.5V71.5ZM61.6771 93.2L55.9771 77.65L50.0771 93.2H61.6771ZM72.2174 113.8V102.05H73.9174C74.8507 102.05 75.6507 101.683 76.3174 100.95C77.0174 100.217 77.6007 99.05 78.0674 97.45C78.5674 95.85 78.9507 93.75 79.2174 91.15C79.5174 88.5167 79.734 85.3 79.8674 81.5L80.1174 71.5H102.968V102.05H107.468V113.8H102.518V107H77.1674V113.8H72.2174V113.8ZM81.0174 102.05H97.3174V76.45H85.3174L85.1674 82.25C85.0674 86.0833 84.8674 89.3333 84.5674 92C84.2674 94.6333 83.834 96.7667 83.2674 98.4C82.7007 100.033 81.9507 101.25 81.0174 102.05V102.05ZM129.191 107.25C126.624 107.25 124.308 106.75 122.241 105.75C120.174 104.75 118.391 103.4 116.891 101.7C115.391 99.9667 114.224 98.0333 113.391 95.9C112.591 93.7333 112.191 91.5167 112.191 89.25C112.191 86.8833 112.624 84.6333 113.491 82.5C114.358 80.3333 115.558 78.4167 117.091 76.75C118.624 75.05 120.424 73.7167 122.491 72.75C124.591 71.75 126.858 71.25 129.291 71.25C131.824 71.25 134.124 71.7667 136.191 72.8C138.291 73.8333 140.074 75.2167 141.541 76.95C143.041 78.6833 144.191 80.6167 144.991 82.75C145.824 84.8833 146.241 87.0667 146.241 89.3C146.241 91.6667 145.808 93.9333 144.941 96.1C144.108 98.2333 142.924 100.15 141.391 101.85C139.858 103.517 138.041 104.833 135.941 105.8C133.874 106.767 131.624 107.25 129.191 107.25V107.25ZM117.891 89.25C117.891 90.9167 118.158 92.5333 118.691 94.1C119.224 95.6667 119.974 97.0667 120.941 98.3C121.941 99.5 123.141 100.45 124.541 101.15C125.941 101.85 127.508 102.2 129.241 102.2C131.041 102.2 132.641 101.833 134.041 101.1C135.441 100.367 136.608 99.3833 137.541 98.15C138.508 96.8833 139.241 95.4833 139.741 93.95C140.241 92.3833 140.491 90.8167 140.491 89.25C140.491 87.5833 140.224 85.9833 139.691 84.45C139.191 82.8833 138.441 81.5 137.441 80.3C136.441 79.0667 135.241 78.1 133.841 77.4C132.474 76.7 130.941 76.35 129.241 76.35C127.441 76.35 125.841 76.7167 124.441 77.45C123.041 78.1833 121.858 79.1667 120.891 80.4C119.924 81.6333 119.174 83.0167 118.641 84.55C118.141 86.0833 117.891 87.65 117.891 89.25V89.25Z" fill="white"/>
</g>
</svg>
